<?xml version="1.0"?>
<svg width="24" height="24" xmlns="http://www.w3.org/2000/svg" xmlns:svg="http://www.w3.org/2000/svg">
 <g class="layer">
  <title>Layer 1</title>
  <path d="m17.7,11.91l-0.4,-0.24l0.4,0.24zm-5.61,-5.61l-0.24,-0.4l0,0l0.24,0.4zm5.72,5.7c0,3.21 -2.6,5.81 -5.81,5.81l0,0.94c3.73,0 6.75,-3.02 6.75,-6.75l-0.94,0zm-5.81,5.81c-3.21,0 -5.81,-2.6 -5.81,-5.81l-0.94,0c0,3.73 3.02,6.75 6.75,6.75l0,-0.94zm-5.81,-5.81c0,-3.21 2.6,-5.81 5.81,-5.81l0,-0.94c-3.73,0 -6.75,3.02 -6.75,6.75l0.94,0zm8.01,1.41c-2,0 -3.61,-1.61 -3.61,-3.61l-0.94,0c0,2.51 2.04,4.55 4.55,4.55l0,-0.94zm3.1,-1.75c-0.63,1.05 -1.78,1.75 -3.1,1.75l0,0.94c1.65,0 3.1,-0.89 3.9,-2.2l-0.8,-0.48zm-6.71,-1.86c0,-1.31 0.7,-2.46 1.75,-3.1l-0.48,-0.8c-1.32,0.8 -2.2,2.25 -2.2,3.9l0.94,0zm1.41,-3.61c-0.06,0 -0.12,-0.03 -0.17,-0.08c-0.04,-0.04 -0.05,-0.08 -0.05,-0.09c0,-0.02 0,-0.08 0.07,-0.12l0.48,0.8c0.31,-0.19 0.42,-0.54 0.38,-0.81c-0.04,-0.29 -0.26,-0.65 -0.72,-0.65l0,0.94zm6.1,5.96c-0.04,0.07 -0.1,0.07 -0.12,0.07c-0.01,0 -0.06,-0.01 -0.09,-0.05c-0.05,-0.05 -0.08,-0.11 -0.08,-0.17l0.94,0c0,-0.45 -0.36,-0.68 -0.65,-0.72c-0.27,-0.04 -0.62,0.07 -0.81,0.38l0.8,0.48z" fill="#1C274C" id="svg_1"/>
 </g>
</svg>